<svg width="31" height="35" viewBox="0 0 31 35" fill="none" xmlns="http://www.w3.org/2000/svg">
<path d="M30.1064 24.85C30.1064 27.6569 29.1877 30.008 27.3502 31.9035C25.5146 33.7984 23.2315 34.7461 20.5007 34.7468H12.4517V21.3165H17.6471V29.8539H20.5007C21.876 29.8539 22.9966 29.3962 23.8624 28.481C24.7296 27.5689 25.1626 26.3586 25.1613 24.85C25.1613 23.3414 24.7283 22.1298 23.8624 21.2152C22.9972 20.3013 21.8766 19.8443 20.5007 19.8443H9.59807C8.07159 19.8669 6.56211 19.5212 5.19722 18.8366C5.10935 18.7926 5.02148 18.7448 4.93554 18.697C4.12697 18.2435 3.38997 17.6727 2.74852 17.003C1.00697 15.2206 0.0220231 12.8327 0 10.3395L0 9.57267C0.0764283 6.9283 0.992629 4.70142 2.7486 2.89203C4.58414 0.99723 6.8673 0.0494953 9.59807 0.0488281H17.6471V13.481H12.4517V4.94177H9.59807C8.22283 4.94177 7.10226 5.39875 6.23639 6.3127C5.36921 7.22671 4.93562 8.43767 4.93562 9.94559C4.93562 11.4561 5.36921 12.6677 6.23639 13.5804C7.10163 14.4944 8.22219 14.952 9.59807 14.9533H20.5007C23.2321 14.9533 25.5153 15.8997 27.3502 17.7927C29.1877 19.6875 30.1064 22.04 30.1064 24.85Z" fill="#4A4A4A"/>
</svg>
