<svg width="32" height="29" viewBox="0 0 32 29" fill="none" xmlns="http://www.w3.org/2000/svg">
<path fill-rule="evenodd" clip-rule="evenodd" d="M27.8058 5.1851C29.11 5.01446 30.3486 4.65309 31.4933 4.10102C30.6301 5.47619 29.5417 6.69075 28.2844 7.66441C28.2937 7.95551 28.3031 8.25664 28.3031 8.55778C28.3031 17.6419 21.8384 28.1213 10.016 28.1213C6.38487 28.1213 3.00705 26.9871 0.164062 25.0297C0.670734 25.0899 1.17741 25.12 1.69346 25.12C4.70535 25.12 7.47328 24.0159 9.67824 22.179C6.86339 22.1188 4.48954 20.1313 3.67324 17.401C4.06732 17.4813 4.47078 17.5215 4.88362 17.5215C5.47474 17.5215 6.03771 17.4412 6.58191 17.2806C3.64509 16.6482 1.42136 13.8677 1.42136 10.5352C1.42136 10.5051 1.42136 10.475 1.42136 10.4449C2.28458 10.9568 3.27916 11.268 4.33003 11.3081C2.6036 10.0735 1.46828 7.96555 1.46828 5.58661C1.46828 4.33189 1.78729 3.14744 2.34088 2.13362C5.51227 6.29928 10.2506 9.02955 15.5894 9.32064C15.4768 8.81875 15.4205 8.29679 15.4205 7.75476C15.4205 3.96049 18.301 0.878906 21.8477 0.878906C23.6962 0.878906 25.3663 1.71204 26.5392 3.04706C28.0029 2.73589 29.3821 2.16374 30.6207 1.38079C30.1515 2.98683 29.1382 4.33189 27.8058 5.1851Z" fill="#B1B1B1"/>
</svg>
